PathFileType	4	(X/Y/Z)	Run_500 02
DataRate	CameraRate	NumFrames	NumMarkers	Units	OrigDataRate	OrigDataStartFrame	OrigNumFrames
120	120	4	42	mm	120	231	128
Frame#	Time	LASI			RASI			LPSI			RPSI			RTH1			RTH2			RTH3			LTH1			LTH2			LTH3			RTB1			RTB2			LTB1			LTB2			LTB3			RCAL			RTOE			RMT5			LCAL			LTOE			LMT5			LACR			RACR			CLAV			C7			RUA1			RUA2			RUA3			RLEL			RMEL			LUA1			LUA2			LUA3			LLEL			LMEL			RFAsuperior			RFAradius			RFAulna			LFAsuperior			LFAradius			LFAulna			RTB3		
		X1	Y1	Z1	X2	Y2	Z2	X3	Y3	Z3	X4	Y4	Z4	X5	Y5	Z5	X6	Y6	Z6	X7	Y7	Z7	X8	Y8	Z8	X9	Y9	Z9	X10	Y10	Z10	X11	Y11	Z11	X12	Y12	Z12	X13	Y13	Z13	X14	Y14	Z14	X15	Y15	Z15	X16	Y16	Z16	X17	Y17	Z17	X18	Y18	Z18	X19	Y19	Z19	X20	Y20	Z20	X21	Y21	Z21	X22	Y22	Z22	X23	Y23	Z23	X24	Y24	Z24	X25	Y25	Z25	X26	Y26	Z26	X27	Y27	Z27	X28	Y28	Z28	X29	Y29	Z29	X30	Y30	Z30	X31	Y31	Z31	X32	Y32	Z32	X33	Y33	Z33	X34	Y34	Z34	X35	Y35	Z35	X36	Y36	Z36	X37	Y37	Z37	X38	Y38	Z38	X39	Y39	Z39	X40	Y40	Z40	X41	Y41	Z41	X42	Y42	Z42	

231	  1.925000	905.540139	1032.051575	-759.908915	924.565565	1006.320566	-497.060129	732.299144	1060.642879	-649.767793	738.408942	1045.329795	-570.406997	889.340550	830.112923	-461.394455	976.599970	743.510720	-471.671799	937.001891	621.719394	-495.273159	872.242958	826.399333	-808.622650	964.945779	722.594756	-794.621742	930.349371	598.825776	-759.795448	890.134490	482.583602	-582.556408	834.472824	518.470453	-511.974433	978.893174	374.224280	-676.115468	916.527432	298.359809	-718.771814	881.115606	199.970051	-640.478430	615.458923	689.896160	-592.318966	528.044924	473.101509	-584.983661	529.482811	549.421231	-500.485473	715.680771	106.382489	-615.800870	948.927022	 70.854982	-601.754958	872.213162	 52.094687	-692.912861	957.080288	1451.982863	-829.142318	958.876347	1497.665225	-483.432121	1002.132747	1420.771366	-615.892312	878.371071	1520.091876	-655.393898	910.165448	1407.063300	-398.257737	873.307780	1324.404131	-396.135584	805.724460	1353.232403	-364.835348	732.182744	1244.111019	-308.822712	699.150539	1236.958271	-385.933239	945.642683	1359.324953	-903.034082	961.277759	1286.855505	-897.056385	869.543288	1278.876821	-919.058305	886.629120	1126.260146	-995.289050	822.093475	1105.963933	-937.978943	820.531080	1174.972934	-314.743710	933.673390	1069.604684	-405.323175	910.904435	1042.769815	-341.851106	974.202939	1120.823047	-943.955228	1077.500027	1122.332514	-801.910037	1092.846337	1060.633311	-837.222599	779.030503	434.600105	-583.241143	
232	  1.933333	902.244182	1030.735835	-760.809122	922.631590	1005.941138	-498.246509	730.019865	1061.703232	-649.853892	737.103624	1045.689128	-570.761197	893.836146	831.917042	-461.948094	989.536520	753.055974	-472.640220	958.657876	629.222721	-494.247471	864.028446	825.402268	-809.909386	950.240472	714.872094	-796.713544	911.232675	593.493248	-761.029207	919.731773	486.344257	-583.310237	862.933854	516.352596	-512.057873	950.913403	367.968090	-676.693914	886.590049	293.934381	-719.333180	846.764599	198.097081	-640.763178	629.018898	670.575389	-587.212497	561.619224	446.560778	-585.660942	555.995934	520.582511	-499.211135	678.128576	108.290828	-615.781540	910.637044	 70.449863	-602.084815	833.645384	 52.168063	-692.955398	962.879701	1452.675546	-828.052334	955.294958	1497.104020	-482.248309	1000.594954	1419.009290	-613.595804	877.568983	1519.594716	-656.275521	902.344265	1408.040185	-397.802657	863.484719	1327.299076	-394.772206	795.101920	1358.241054	-367.515270	718.140668	1251.562118	-311.403999	686.676908	1244.359464	-388.982508	953.991750	1358.149599	-899.805022	969.681914	1286.845238	-893.527315	877.416111	1276.113262	-916.099857	899.998156	1123.974024	-991.442414	835.715852	1102.358715	-934.710782	803.730421	1179.286398	-314.989773	916.676016	1071.580309	-401.670588	889.518210	1043.357310	-340.786520	986.798803	1121.797681	-939.493080	1088.428944	1130.194292	-795.163866	1106.659741	1068.331741	-828.641244	807.309720	432.614328	-583.273669	
233	  1.941667	899.508037	1029.899135	-761.895389	921.368098	1006.529660	-499.475170	728.466245	1063.243615	-650.114083	736.229778	1047.136727	-571.151349	898.258010	835.519997	-462.395411	1000.576257	764.089195	-473.304997	978.144412	639.073334	-493.934746	854.672962	824.402938	-810.619061	933.913769	708.851532	-798.508733	891.586567	589.632679	-762.811492	948.846858	491.482940	-584.115293	890.501104	515.339218	-512.271055	922.464982	363.317127	-678.147114	855.860058	291.358090	-720.457585	812.671826	197.270848	-641.825738	641.911484	647.813742	-582.932877	597.025415	418.261678	-587.216740	583.715202	489.188783	-498.941778	640.780695	110.875229	-615.818283	872.474053	 70.104836	-602.551240	795.108470	 52.265230	-692.946036	968.556252	1455.294525	-826.004500	951.207551	1498.052500	-480.754308	999.133178	1419.043362	-611.001662	877.141099	1520.587899	-656.978948	893.382841	1411.362520	-396.956363	852.687833	1332.115265	-393.335514	783.762645	1365.234340	-369.893903	703.709215	1260.810467	-314.218336	673.821312	1254.116692	-392.296417	962.554689	1359.399034	-896.462755	977.270500	1289.063523	-889.699114	884.583318	1275.491539	-914.420943	911.467463	1123.662840	-987.014685	847.918713	1101.276676	-929.833243	785.942878	1185.365523	-315.734305	899.817312	1077.559934	-400.423481	869.171756	1047.882856	-341.957400	997.083970	1124.547732	-935.109871	1096.980865	1141.286237	-788.225233	1118.215894	1079.349930	-819.583267	834.638039	431.761315	-583.431985	
234	  1.950000	897.573318	1029.680026	-763.211789	920.918747	1008.363479	-500.742805	727.721561	1065.215271	-650.408775	735.232030	1049.791622	-571.193834	902.650742	840.865017	-462.640720	1009.936814	776.102215	-473.640353	995.395447	650.599666	-494.091821	843.982006	823.358582	-810.682560	916.856915	704.435534	-799.842587	871.106975	587.163590	-764.772308	977.358857	497.482139	-584.982639	916.929714	515.168525	-512.642895	893.279946	359.744384	-680.513535	823.876105	290.153034	-721.887939	778.277768	197.194946	-643.446212	655.134795	621.811969	-579.739053	634.958541	388.825812	-589.357640	613.686932	455.937660	-499.547425	603.237810	114.549701	-616.037562	833.924268	 69.646652	-603.077651	756.109093	 52.442354	-693.079382	973.599520	1459.474150	-822.936512	946.522091	1500.444707	-479.201099	997.751607	1421.291995	-608.201428	876.897207	1522.967457	-657.396359	883.723036	1417.095439	-396.054514	841.450769	1338.678813	-392.385702	772.366577	1373.943450	-372.003433	688.998521	1271.471955	-317.708864	660.867082	1265.879278	-396.400324	970.593825	1362.897531	-892.955454	984.077109	1293.082855	-885.677040	891.399934	1277.343403	-913.593416	921.556366	1125.049375	-982.060133	858.689481	1102.294294	-924.006164	768.033783	1193.424716	-317.351466	883.321409	1086.238290	-401.158950	850.335485	1055.834966	-344.249141	1006.160743	1129.439878	-929.856347	1103.390227	1154.716002	-781.156574	1127.605174	1092.922368	-810.432035	860.841917	431.735841	-583.747526	
